<svg xmlns="http://www.w3.org/2000/svg" width="159" height="52" viewBox="0 0 159 52"><g fill="#0000c1"><path d="M149.32 24a2.38 2.38 0 1 1 .02 4.76 2.38 2.38 0 0 1-.02-4.76m0 4.41a2 2 0 1 0-1.94-2 1.94 1.94 0 0 0 1.97 2.01zm-.91-3.41h1.07c.64 0 1 .25 1 .78a.71.71 0 0 1-.72.78l.79 1.23H150l-.79-1.23h-.38v1.24h-.45zm.46 1.2h.54c.34 0 .57-.07.57-.43s-.29-.41-.58-.41h-.54z"/><path d="M91.5.56c-4.16 3.56-6 6.63-9 11.91a12.3 12.3 0 0 1 1.77 5.75l1.64-2.54c3-4.61 7.39-10.41 13.48-13.17 0 0 .12.09.13.08v.21c-5.91 4.12-13.17 18.42-14.58 20.73 4.38-1.66 8-5.35 10.2-2.58l.5-.8h2.15l-3.43 6.09c-.25.76.05 1.93 1.6.11l.84-1c2.08-2.71 2.7-3.81 3.82-4.57.63-.64 2.82-1.19 3.25.07l.26.65c1.43-.68 2.79-2 4.34-1 .48.5 1.14.92.26 2.74-.92 1.44-.75 1.23-1.67 2.73-.75 1.16-.47 3.19 2.78-.41 2-2.67 3.94-6.55 8.18-5.35.65.42.91.71.74 1.35a1 1 0 0 1-1.22.4c-.59-.26-.33-1.57-1.86-.59a16.3 16.3 0 0 0-2.89 4.43c-.33.85-.2 1.56.68 1.85a3.54 3.54 0 0 0 2.77-1.44c2.78-2.21 4.91-6.94 9.19-6 2.13.69.8 3.23 3.36 1.72 2.23-1.23 3.07-2.27 5.9-1.65.592.23.987.795 1 1.43a.82.82 0 0 1-.64.68c-1.24.38-.4-1.79-2.13-1a9.35 9.35 0 0 0-2.57 3.47c-1.25 1.95-.68 4.09 2.48 1.84a16 16 0 0 0 2.85-2.7c6.11-6.54 6.47-10.61 13.07-16.54 2.5-2.69 6.34-2.92 4.09.43a18 18 0 0 1-1.26 1.42 24 24 0 0 1-5.42 4c-1.68 2.39-2.7 4.5-4.32 7.12l-.5 1a17.2 17.2 0 0 1 3.2-1.62c3.35-.82 3.17 1.92 2.67 2.73-1.59 2.33-4.42 2.53-6.82 3 2.88 1.88 4.26 4.11 6.65 7.83a26 26 0 0 1 6.8 2 17.4 17.4 0 0 1 3.51 2.18c4.49 4.54-.83 7.33-6.48 3.53-2.54-1.93-3.31-3.15-5.63-6.51a128.3 128.3 0 0 0-29.56 0l-.17-.17c6.15-1.67 19.28-2.59 28.54-1.45-1.1-1.85-3.53-6.65-5-7.06-.69 1-1.63 2.84-1.63 2.84h-3c.87-1.69 2.24-4 2.95-5.55a29.3 29.3 0 0 1-4.58 4.4c-2.76 1.76-4.07 1.18-5 .26-.85-1.39-.06-3.26.4-4.81-.87.15-.73.67-1.77.43-.88 1.86-1.29 2.94-2.72 4.1-2.4 1.83-4.34 1.29-5.15.07a4 4 0 0 1 0-2.89c-1.91 1.84-4.21 4.93-7.29 3.64a2.12 2.12 0 0 1-1.11-1.89 4.4 4.4 0 0 1 .17-.64c-2.28 2.68-4.7 3.62-6.08 2.2-1-1.16 1.12-3.95 1.6-4.88l.23-.4c.9-1.35-.89-1-1.18-.75-1.1.38-2 1.95-2.88 3.49l-1.72 3.22h-2.8c1.19-2.2 2.41-4.13 3.54-6.3.06-.27.1-1.16-.91-.44-.42.57-1 1.29-2 2.69-.81 1.08-3.06 4.61-5.21 4.12-1-.34-1-.58-1.18-1.13-.06-.17.07-.5 0-.38a4.62 4.62 0 0 1-3.58 1.36 1.87 1.87 0 0 1-1.64-1.44 5.56 5.56 0 0 1 1.28-4l-.3.08a20 20 0 0 1-3 1.07c-.88 1.35-1.61 2.95-2.47 4.37H78.8l2-4a10.2 10.2 0 0 1-4-.91 9.88 9.88 0 0 1-6.8 5.25c-2.57.48-5.1-.81-7-1.91-2.94 2.33-8.59 2.53-5.24-2 .59-.93-.11.15.69-1.12a8 8 0 0 0 .63-1c1.13-1.52-1-2.68-3.35 1.22-1 1.65-1.44 2.21-2.76 4.46h-2.49c1.25-2.18 2.5-4.17 3.72-6.35.42-.68.08-1.75-1.29-.25l-.23.29c-.8 1-2.54 3.39-3.67 4.85-2.22 2.62-5.33 1.44-3.78-1.36.67-1.27.71-1.23 1-1.73s.48-.89.58-1.12c1.53-2.39-1.65-2-4.08 2.7L41 28.7h-2.6s3.23-5.53 4.7-8.24l-.55.38a4.6 4.6 0 0 1-3.23 1.48 8.68 8.68 0 0 1-2.77 4.87c-2.31 2-4.08 1.39-4.76 1a2.76 2.76 0 0 1-.93-2.07c.08-1.92 1.18-3.15 2.31-4.68-.84.25-1.94.26-2.95.64-1.22 2.29-6.41 14.16-10.1 19.53-7.42 10.4-16.27 11.92-19 9.19-2-2.52.24-7.92 4.89-14 4.61-5.63 12.18-11.1 20.91-14.45a73.9 73.9 0 0 1 13-16.94c-2.69 1.36-7.71 1.21-9.78-.61.65 4-2.62 8.21-6.24 9.5 3.36-2.5 6.3-5.93 5.44-10-.51-.67-.85-.58-1.14-1.47-.13-1.14.92-1 1.39.37 1 1.47 3.19 2.31 5.72 2.42A11.12 11.12 0 0 0 42.53 3l.13.29c-5.37 5-10.73 15.1-11.94 17.88 3.79-1.15 6.82-1.84 7.71-.66.54.4.44.72 1 1 1.22.42 3.87-2.17 5.5-4.33 2.94-3.68 4.27-8.36 10.3-11.76 1-.49 2.53.08 1.42 1.93-1 1.69-4.49 4.57-6.38 5.84-1.54 1-3.06 4.74-5 7.66 1.6-.7 5.79-2.24 4.31 1.54a31 31 0 0 1-1.84 3.34c-.76.89-.33 2.2 1.16.27.36-.42 1.61-2.17 2.14-2.83 1.65-2.05 2.7-3.74 4.9-3 .57.32.65 1.14.62 1.75a10.3 10.3 0 0 1 2.55-1.59 2.88 2.88 0 0 1 2.36-.14c1.14.8.2 2.43 0 2.79l-2.09 3.34c-.42.93-.12 1.69 1.18 1.3a7.8 7.8 0 0 0 2-1c-.55-.61-1.08-1.13-.61-1.31.14.07 1.18.91 1.18.91a46.8 46.8 0 0 0 7.89-7.58 6.7 6.7 0 0 1-.64-2.23c-.48-2.19.6-7.59 6.2-7.57 0 0 .85-2.59.88-2.75.39-1.258.41-2.6.06-3.87-.11-.54-.14-1 .29-1.15 1.08.09.69 1.41 1 2.08s.5 1.27 1.21 1.53c4.69 2 8.76-3.71 11.54-4.39zM54 7.47a23 23 0 0 0-3.43 4.78 23.1 23.1 0 0 0 5.25-4.7C56.9 6.4 56 5.25 54 7.47M150.9 7a19.6 19.6 0 0 0-3.82 4.89l1.81-1.25a20.3 20.3 0 0 0 2.54-2.2c2.5-2.62.52-2.57-.53-1.44m-78.58 4.47a6.71 6.71 0 0 0-.86 6.45 28.2 28.2 0 0 0 4.69-8.2 4.85 4.85 0 0 0-3.83 1.76zM77 9.82a32 32 0 0 1-4.9 8.66l-.21.34a7.4 7.4 0 0 0 2.42 2.69c1.93-3.09 3.55-6.59 6-10.27-.62-.85-2.63-1.41-3.31-1.42m5.11 3.56-4.64 9.3-.25.46a12.6 12.6 0 0 0 3.88.91 10.51 10.51 0 0 0 1.01-10.67m-9.92 7.38-.93-1.22a42 42 0 0 1-7.39 7.07 7.1 7.1 0 0 0 4.52.78c2.53-.51 4.24-3.05 5.46-5.08zm19.49.88a16 16 0 0 0-2.35 3.51c-.71 1.27-.55 2.1 0 2.36s1 0 2-1a30 30 0 0 0 2.51-3.81c1.32-2.55-1.08-2.49-2.16-1.06m33.4.57c.35-2-1.48-1.56-3.77 1.77-1.61 2.31-1 6.1 2.82 1.74q.556-.811 1-1.69c.88-1.69-.09-1.2-.07-1.6zm17.83-.84c-1.22.64-2 1.08-3.46 3.64 2-.32 3.68-.77 4.74-2.08 1.29-1.77-.19-2.15-1.29-1.55zm-116.58 2c-10 4.3-16.19 10.11-21.89 17.89-2.22 3.51-4.43 7.66-2.24 9.37 3.21 1.8 9.19-.57 16.55-13.65 2.8-5 5.69-9.89 7.57-13.61zm121.88 11.84a17.6 17.6 0 0 0 2.65 3.07c.68.56 1.91 1.81 2.73 2.37 4.91 3.35 6.85-.75 2.06-3.26a19.9 19.9 0 0 0-7.44-2.18M78.45 4.41a23.5 23.5 0 0 1-1.12 4.6 6.36 6.36 0 0 1 3.38 1.42A48 48 0 0 1 85.21 5c-.94.82-5.11 1.81-6.76-.59M37.83 22c.21-1.52-1.37-1.64-3.53 1.74-2.16 3.09-1 5.88 2.14 2.41A15.5 15.5 0 0 0 38 23.71c.7-1.63-.15-1.09-.13-1.49zm4.62-18.89c.15-.15.38.06.19.23-.1-.03-.24-.18-.19-.22z"/></g></svg>